<?xml version="1.0" encoding="UTF-8" standalone="no" ?>
<!DOCTYPE svg PUBLIC "-//W3C//DTD SVG 1.1//EN" "http://www.w3.org/Graphics/SVG/1.1/DTD/svg11.dtd">
<svg version="1.1" id="Layer_1" xmlns="http://www.w3.org/2000/svg" xmlns:xlink="http://www.w3.org/1999/xlink" x="0px" y="0px"
   viewBox="0 0 1080 1080" enable-background="new 0 0 1080 1080" xml:space="preserve">
   <desc>Created with Fabric.js 5.2.4</desc>
   <defs>
   </defs>
   <g transform="matrix(1 0 0 1 540 540)" id="5b878ecb-6b2e-46d8-8be4-5bcb1668b3fe">
      <rect style="stroke: none; stroke-width: 1; stroke-dasharray: none; stroke-linecap: butt; stroke-dashoffset: 0; stroke-linejoin: miter; stroke-miterlimit: 4; fill: rgb(255,255,255); fill-rule: nonzero; opacity: 1; visibility: hidden;" vector-effect="non-scaling-stroke" x="-540" y="-540" rx="0" ry="0" width="1080" height="1080" />
   </g>
   <g transform="matrix(Infinity NaN NaN Infinity 0 0)" id="b992f085-ad34-4220-aa4d-c343daf0cc0d">
   </g>
   <g transform="matrix(1 0 0 1.09 0 0)">
      <path style="stroke: none; stroke-width: 1; stroke-dasharray: none; stroke-linecap: butt; stroke-dashoffset: 0; stroke-linejoin: miter; stroke-miterlimit: 4; fill: rgb(0,0,0); fill-rule: nonzero; opacity: 1;" vector-effect="non-scaling-stroke" d="M 1081 905 C 1081 947.690002 1081 990.380066 1080.575073 1033.31958 C 1039.826294 1033.54834 999.502319 1033.547852 959.178589 1033.448608 C 957.086975 1033.443481 954.997437 1032.597168 952.906921 1032.142578 C 952.909241 1031.729004 952.91156 1031.31543 952.913818 1030.901855 C 951.940491 1031.677612 950.967224 1032.453369 949.023254 1034.002808 C 843.234558 928.187866 737.572021 822.499023 631.943359 716.844116 C 631.943359 718.450806 631.94342 720.270325 631.94342 722.089844 C 631.94342 823.893433 631.944153 925.697021 631.937256 1027.50061 C 631.937134 1029.330078 631.844849 1031.159546 631.617615 1033.082764 C 631.229858 1033.354858 631.079712 1033.574219 630.526855 1033.911255 C 569.177429 1033.988281 508.290344 1033.988281 447.027466 1033.988281 C 447.027466 901.53363 447.027466 769.827148 447.027466 638.141479 C 359.778168 638.141479 272.908173 638.141479 185.681946 638.141479 C 185.681946 770.167969 185.681946 901.885925 185.681946 1034 C 123.883858 1034 62.441929 1034 1 1034 C 1 705.643372 1 377.286682 1.468657 48.464989 C 63.174759 47.99995 124.412209 47.99995 185.986115 47.99995 C 185.986115 180.526016 185.986115 312.289429 185.986115 444.065338 C 273.20108 444.065338 360.076019 444.065338 447.303497 444.065338 C 447.303497 311.981812 447.303497 180.222977 447.303497 47.999947 C 449.437042 47.999947 451.223633 47.999947 453.010223 47.999947 C 500.174683 47.999947 547.339111 47.988892 594.503601 48.007534 C 606.665405 48.012341 618.827271 48.110504 631.079407 48.345589 C 631.320984 48.761196 631.529602 48.923019 631.86377 49.474396 C 631.931885 155.148911 631.931885 260.359894 631.931885 366.068512 C 738.063782 259.947784 843.752441 154.270218 949.526062 48.50769 C 951.041931 49.637276 952.035156 50.37735 953.02832 51.117424 C 953.030518 50.633369 953.032776 50.149315 953.034973 49.66526 C 954.878113 49.110157 956.720093 48.074718 958.564514 48.070549 C 999.37616 47.978256 1040.18811 47.999981 1081 48 C 1081 91.356659 1081 134.713318 1080.680664 178.640289 C 959.832092 299.712891 839.302734 420.21521 717.791748 541.698914 C 719.641846 543.005493 721.317871 543.863586 722.585327 545.130432 C 840.44751 662.934998 958.282043 780.767273 1076.0802 898.635864 C 1077.960327 900.517151 1079.370483 902.868225 1081 905 z" stroke-linecap="round" />
   </g>
   <g transform="matrix(1 0 0 1 1170.47 584.27)">
      <path style="stroke: none; stroke-width: 1; stroke-dasharray: none; stroke-linecap: butt; stroke-dashoffset: 0; stroke-linejoin: miter; stroke-miterlimit: 4; fill: rgb(26,26,26); fill-rule: nonzero; opacity: 1;" vector-effect="non-scaling-stroke" transform=" translate(-630, -539.73)" d="M 631.079407 48.345592 C 631.30188 48.267441 631.614624 48.369095 631.861511 48.740807 C 631.529602 48.923019 631.320984 48.761196 631.079407 48.345592 z" stroke-linecap="round" />
   </g>
   <g transform="matrix(1 0 0 1 1170.42 1569.18)">
      <path style="stroke: none; stroke-width: 1; stroke-dasharray: none; stroke-linecap: butt; stroke-dashoffset: 0; stroke-linejoin: miter; stroke-miterlimit: 4; fill: rgb(26,26,26); fill-rule: nonzero; opacity: 1;" vector-effect="non-scaling-stroke" transform=" translate(-630, -1075.48)" d="M 631.617615 1033.082764 C 631.709656 1033.301147 631.623657 1033.613403 631.263428 1033.879883 C 631.079712 1033.574219 631.229858 1033.354858 631.617615 1033.082764 z" stroke-linecap="round" />
   </g>
</svg>